%TF.GenerationSoftware,KiCad,Pcbnew,7.0.9-7.0.9~ubuntu22.04.1*%
%TF.CreationDate,2023-12-05T21:50:24+01:00*%
%TF.ProjectId,Chytry_sklep,43687974-7279-45f7-936b-6c65702e6b69,rev?*%
%TF.SameCoordinates,Original*%
%TF.FileFunction,Soldermask,Bot*%
%TF.FilePolarity,Negative*%
%FSLAX46Y46*%
G04 Gerber Fmt 4.6, Leading zero omitted, Abs format (unit mm)*
G04 Created by KiCad (PCBNEW 7.0.9-7.0.9~ubuntu22.04.1) date 2023-12-05 21:50:24*
%MOMM*%
%LPD*%
G01*
G04 APERTURE LIST*
%ADD10R,1.600000X1.600000*%
%ADD11O,1.600000X1.600000*%
%ADD12R,1.700000X1.700000*%
%ADD13O,1.700000X1.700000*%
%ADD14C,5.000000*%
%ADD15C,1.524000*%
%ADD16C,1.700000*%
%ADD17R,1.500000X1.500000*%
%ADD18C,1.500000*%
%ADD19R,2.000000X2.000000*%
%ADD20C,2.000000*%
%ADD21R,2.800000X2.800000*%
%ADD22C,2.800000*%
G04 APERTURE END LIST*
D10*
%TO.C,U1*%
X190600000Y-120620000D03*
D11*
X193140000Y-120620000D03*
X195680000Y-120620000D03*
X198220000Y-120620000D03*
X200760000Y-120620000D03*
X203300000Y-120620000D03*
X205840000Y-120620000D03*
X208380000Y-120620000D03*
X210920000Y-120620000D03*
X213460000Y-120620000D03*
X216000000Y-120620000D03*
X218540000Y-120620000D03*
X221080000Y-120620000D03*
X223620000Y-120620000D03*
X223620000Y-113000000D03*
X221080000Y-113000000D03*
X218540000Y-113000000D03*
X216000000Y-113000000D03*
X213460000Y-113000000D03*
X210920000Y-113000000D03*
X208380000Y-113000000D03*
X205840000Y-113000000D03*
X203300000Y-113000000D03*
X200760000Y-113000000D03*
X198220000Y-113000000D03*
X195680000Y-113000000D03*
X193140000Y-113000000D03*
X190600000Y-113000000D03*
%TD*%
D12*
%TO.C,Num1*%
X188720000Y-73000000D03*
D13*
X191260000Y-73000000D03*
X193800000Y-73000000D03*
X196340000Y-73000000D03*
X198880000Y-73000000D03*
X201420000Y-73000000D03*
X203960000Y-73000000D03*
X206500000Y-73000000D03*
%TD*%
D12*
%TO.C,LED1*%
X192840000Y-104000000D03*
D13*
X195380000Y-104000000D03*
X197920000Y-104000000D03*
X200460000Y-104000000D03*
X203000000Y-104000000D03*
X205540000Y-104000000D03*
X208080000Y-104000000D03*
%TD*%
D14*
%TO.C,Zero1*%
X133600000Y-120000000D03*
X133600000Y-97000000D03*
X75600000Y-120000000D03*
X75600000Y-97000000D03*
D15*
X127976000Y-118390000D03*
X127976000Y-120930000D03*
X125436000Y-118390000D03*
X125436000Y-120930000D03*
X122896000Y-118390000D03*
X122896000Y-120930000D03*
X120356000Y-118390000D03*
X120356000Y-120930000D03*
X117816000Y-118390000D03*
X117816000Y-120930000D03*
X115276000Y-118390000D03*
X115276000Y-120930000D03*
X112736000Y-118390000D03*
X112736000Y-120930000D03*
X110196000Y-118390000D03*
X110196000Y-120930000D03*
X107656000Y-118390000D03*
X107656000Y-120930000D03*
X105116000Y-118390000D03*
X105116000Y-120930000D03*
X102576000Y-118390000D03*
X102576000Y-120930000D03*
X100036000Y-118390000D03*
X100036000Y-120930000D03*
X97496000Y-118390000D03*
X97496000Y-120930000D03*
X94956000Y-118390000D03*
X94956000Y-120930000D03*
X92416000Y-118390000D03*
X92416000Y-120930000D03*
X89876000Y-118390000D03*
X89876000Y-120930000D03*
X87336000Y-118390000D03*
X87336000Y-120930000D03*
X84796000Y-118390000D03*
X84796000Y-120930000D03*
X82256000Y-118390000D03*
X82256000Y-120930000D03*
X79716000Y-118390000D03*
X79716000Y-120930000D03*
%TD*%
D12*
%TO.C,NRF1*%
X70675000Y-74440000D03*
D16*
X70675000Y-71900000D03*
X73215000Y-74440000D03*
X73215000Y-71900000D03*
X75755000Y-74440000D03*
X75755000Y-71900000D03*
X78295000Y-74440000D03*
X78295000Y-71900000D03*
%TD*%
D10*
%TO.C,U3*%
X225000000Y-78500000D03*
D11*
X222460000Y-78500000D03*
X219920000Y-78500000D03*
X217380000Y-78500000D03*
X214840000Y-78500000D03*
X212300000Y-78500000D03*
X209760000Y-78500000D03*
X207220000Y-78500000D03*
X204680000Y-78500000D03*
X202140000Y-78500000D03*
X199600000Y-78500000D03*
X197060000Y-78500000D03*
X194520000Y-78500000D03*
X191980000Y-78500000D03*
X191980000Y-86120000D03*
X194520000Y-86120000D03*
X197060000Y-86120000D03*
X199600000Y-86120000D03*
X202140000Y-86120000D03*
X204680000Y-86120000D03*
X207220000Y-86120000D03*
X209760000Y-86120000D03*
X212300000Y-86120000D03*
X214840000Y-86120000D03*
X217380000Y-86120000D03*
X219920000Y-86120000D03*
X222460000Y-86120000D03*
X225000000Y-86120000D03*
%TD*%
D12*
%TO.C,V1*%
X137450000Y-125975000D03*
D13*
X139990000Y-125975000D03*
X142530000Y-125975000D03*
X145070000Y-125975000D03*
%TD*%
D17*
%TO.C,DHT22*%
X232000000Y-95920000D03*
D18*
X232000000Y-98460000D03*
X232000000Y-101000000D03*
X232000000Y-103540000D03*
%TD*%
D12*
%TO.C,Rasp_pins1*%
X92920000Y-128000000D03*
D13*
X95460000Y-128000000D03*
X98000000Y-128000000D03*
X100540000Y-128000000D03*
X103080000Y-128000000D03*
X105620000Y-128000000D03*
X108160000Y-128000000D03*
%TD*%
D12*
%TO.C,LCD1*%
X228300000Y-72525000D03*
D13*
X225760000Y-72525000D03*
X223220000Y-72525000D03*
X220680000Y-72525000D03*
%TD*%
D10*
%TO.C,U2*%
X152000000Y-89980000D03*
D11*
X152000000Y-92520000D03*
X152000000Y-95060000D03*
X152000000Y-97600000D03*
X152000000Y-100140000D03*
X152000000Y-102680000D03*
X152000000Y-105220000D03*
X152000000Y-107760000D03*
X152000000Y-110300000D03*
X152000000Y-112840000D03*
X152000000Y-115380000D03*
X152000000Y-117920000D03*
X152000000Y-120460000D03*
X152000000Y-123000000D03*
X159620000Y-123000000D03*
X159620000Y-120460000D03*
X159620000Y-117920000D03*
X159620000Y-115380000D03*
X159620000Y-112840000D03*
X159620000Y-110300000D03*
X159620000Y-107760000D03*
X159620000Y-105220000D03*
X159620000Y-102680000D03*
X159620000Y-100140000D03*
X159620000Y-97600000D03*
X159620000Y-95060000D03*
X159620000Y-92520000D03*
X159620000Y-89980000D03*
%TD*%
D19*
%TO.C,MQ_4*%
X95140000Y-78240000D03*
D20*
X93750000Y-81600000D03*
X95140000Y-84960000D03*
X101860000Y-84960000D03*
X103250000Y-81600000D03*
X101860000Y-78240000D03*
%TD*%
D21*
%TO.C,Power1*%
X166920000Y-73500000D03*
D22*
X172000000Y-73500000D03*
%TD*%
D12*
%TO.C,RFID1*%
X68175000Y-116675000D03*
D13*
X68175000Y-114135000D03*
X68175000Y-111595000D03*
X68175000Y-109055000D03*
X68175000Y-106515000D03*
X68175000Y-103975000D03*
X68175000Y-101435000D03*
X68175000Y-98895000D03*
%TD*%
D19*
%TO.C,MQ_7*%
X120890000Y-78440000D03*
D20*
X119500000Y-81800000D03*
X120890000Y-85160000D03*
X127610000Y-85160000D03*
X129000000Y-81800000D03*
X127610000Y-78440000D03*
%TD*%
M02*
