%TF.GenerationSoftware,KiCad,Pcbnew,7.0.9-7.0.9~ubuntu22.04.1*%
%TF.CreationDate,2023-12-05T21:50:24+01:00*%
%TF.ProjectId,Chytry_sklep,43687974-7279-45f7-936b-6c65702e6b69,rev?*%
%TF.SameCoordinates,Original*%
%TF.FileFunction,Legend,Bot*%
%TF.FilePolarity,Positive*%
%FSLAX46Y46*%
G04 Gerber Fmt 4.6, Leading zero omitted, Abs format (unit mm)*
G04 Created by KiCad (PCBNEW 7.0.9-7.0.9~ubuntu22.04.1) date 2023-12-05 21:50:24*
%MOMM*%
%LPD*%
G01*
G04 APERTURE LIST*
%ADD10C,0.100000*%
G04 APERTURE END LIST*
D10*
X143072419Y-124196115D02*
X142072419Y-124196115D01*
X142072419Y-124196115D02*
X142072419Y-123815163D01*
X142072419Y-123815163D02*
X142120038Y-123719925D01*
X142120038Y-123719925D02*
X142167657Y-123672306D01*
X142167657Y-123672306D02*
X142262895Y-123624687D01*
X142262895Y-123624687D02*
X142405752Y-123624687D01*
X142405752Y-123624687D02*
X142500990Y-123672306D01*
X142500990Y-123672306D02*
X142548609Y-123719925D01*
X142548609Y-123719925D02*
X142596228Y-123815163D01*
X142596228Y-123815163D02*
X142596228Y-124196115D01*
X143072419Y-123196115D02*
X142072419Y-123196115D01*
X142072419Y-123196115D02*
X142072419Y-122958020D01*
X142072419Y-122958020D02*
X142120038Y-122815163D01*
X142120038Y-122815163D02*
X142215276Y-122719925D01*
X142215276Y-122719925D02*
X142310514Y-122672306D01*
X142310514Y-122672306D02*
X142500990Y-122624687D01*
X142500990Y-122624687D02*
X142643847Y-122624687D01*
X142643847Y-122624687D02*
X142834323Y-122672306D01*
X142834323Y-122672306D02*
X142929561Y-122719925D01*
X142929561Y-122719925D02*
X143024800Y-122815163D01*
X143024800Y-122815163D02*
X143072419Y-122958020D01*
X143072419Y-122958020D02*
X143072419Y-123196115D01*
X142072419Y-122291353D02*
X142072419Y-121624687D01*
X142072419Y-121624687D02*
X143072419Y-122053258D01*
X140472419Y-124196115D02*
X139472419Y-124196115D01*
X139472419Y-124196115D02*
X139472419Y-123815163D01*
X139472419Y-123815163D02*
X139520038Y-123719925D01*
X139520038Y-123719925D02*
X139567657Y-123672306D01*
X139567657Y-123672306D02*
X139662895Y-123624687D01*
X139662895Y-123624687D02*
X139805752Y-123624687D01*
X139805752Y-123624687D02*
X139900990Y-123672306D01*
X139900990Y-123672306D02*
X139948609Y-123719925D01*
X139948609Y-123719925D02*
X139996228Y-123815163D01*
X139996228Y-123815163D02*
X139996228Y-124196115D01*
X140472419Y-123196115D02*
X139472419Y-123196115D01*
X139472419Y-123196115D02*
X139472419Y-122958020D01*
X139472419Y-122958020D02*
X139520038Y-122815163D01*
X139520038Y-122815163D02*
X139615276Y-122719925D01*
X139615276Y-122719925D02*
X139710514Y-122672306D01*
X139710514Y-122672306D02*
X139900990Y-122624687D01*
X139900990Y-122624687D02*
X140043847Y-122624687D01*
X140043847Y-122624687D02*
X140234323Y-122672306D01*
X140234323Y-122672306D02*
X140329561Y-122719925D01*
X140329561Y-122719925D02*
X140424800Y-122815163D01*
X140424800Y-122815163D02*
X140472419Y-122958020D01*
X140472419Y-122958020D02*
X140472419Y-123196115D01*
X139805752Y-121767544D02*
X140472419Y-121767544D01*
X139424800Y-122005639D02*
X140139085Y-122243734D01*
X140139085Y-122243734D02*
X140139085Y-121624687D01*
X137872419Y-124196115D02*
X136872419Y-124196115D01*
X136872419Y-124196115D02*
X136872419Y-123815163D01*
X136872419Y-123815163D02*
X136920038Y-123719925D01*
X136920038Y-123719925D02*
X136967657Y-123672306D01*
X136967657Y-123672306D02*
X137062895Y-123624687D01*
X137062895Y-123624687D02*
X137205752Y-123624687D01*
X137205752Y-123624687D02*
X137300990Y-123672306D01*
X137300990Y-123672306D02*
X137348609Y-123719925D01*
X137348609Y-123719925D02*
X137396228Y-123815163D01*
X137396228Y-123815163D02*
X137396228Y-124196115D01*
X137872419Y-123196115D02*
X136872419Y-123196115D01*
X136872419Y-123196115D02*
X136872419Y-122958020D01*
X136872419Y-122958020D02*
X136920038Y-122815163D01*
X136920038Y-122815163D02*
X137015276Y-122719925D01*
X137015276Y-122719925D02*
X137110514Y-122672306D01*
X137110514Y-122672306D02*
X137300990Y-122624687D01*
X137300990Y-122624687D02*
X137443847Y-122624687D01*
X137443847Y-122624687D02*
X137634323Y-122672306D01*
X137634323Y-122672306D02*
X137729561Y-122719925D01*
X137729561Y-122719925D02*
X137824800Y-122815163D01*
X137824800Y-122815163D02*
X137872419Y-122958020D01*
X137872419Y-122958020D02*
X137872419Y-123196115D01*
X136872419Y-122291353D02*
X136872419Y-121672306D01*
X136872419Y-121672306D02*
X137253371Y-122005639D01*
X137253371Y-122005639D02*
X137253371Y-121862782D01*
X137253371Y-121862782D02*
X137300990Y-121767544D01*
X137300990Y-121767544D02*
X137348609Y-121719925D01*
X137348609Y-121719925D02*
X137443847Y-121672306D01*
X137443847Y-121672306D02*
X137681942Y-121672306D01*
X137681942Y-121672306D02*
X137777180Y-121719925D01*
X137777180Y-121719925D02*
X137824800Y-121767544D01*
X137824800Y-121767544D02*
X137872419Y-121862782D01*
X137872419Y-121862782D02*
X137872419Y-122148496D01*
X137872419Y-122148496D02*
X137824800Y-122243734D01*
X137824800Y-122243734D02*
X137777180Y-122291353D01*
X145672419Y-123996115D02*
X144672419Y-123996115D01*
X144672419Y-123996115D02*
X144672419Y-123615163D01*
X144672419Y-123615163D02*
X144720038Y-123519925D01*
X144720038Y-123519925D02*
X144767657Y-123472306D01*
X144767657Y-123472306D02*
X144862895Y-123424687D01*
X144862895Y-123424687D02*
X145005752Y-123424687D01*
X145005752Y-123424687D02*
X145100990Y-123472306D01*
X145100990Y-123472306D02*
X145148609Y-123519925D01*
X145148609Y-123519925D02*
X145196228Y-123615163D01*
X145196228Y-123615163D02*
X145196228Y-123996115D01*
X145148609Y-122662782D02*
X145196228Y-122519925D01*
X145196228Y-122519925D02*
X145243847Y-122472306D01*
X145243847Y-122472306D02*
X145339085Y-122424687D01*
X145339085Y-122424687D02*
X145481942Y-122424687D01*
X145481942Y-122424687D02*
X145577180Y-122472306D01*
X145577180Y-122472306D02*
X145624800Y-122519925D01*
X145624800Y-122519925D02*
X145672419Y-122615163D01*
X145672419Y-122615163D02*
X145672419Y-122996115D01*
X145672419Y-122996115D02*
X144672419Y-122996115D01*
X144672419Y-122996115D02*
X144672419Y-122662782D01*
X144672419Y-122662782D02*
X144720038Y-122567544D01*
X144720038Y-122567544D02*
X144767657Y-122519925D01*
X144767657Y-122519925D02*
X144862895Y-122472306D01*
X144862895Y-122472306D02*
X144958133Y-122472306D01*
X144958133Y-122472306D02*
X145053371Y-122519925D01*
X145053371Y-122519925D02*
X145100990Y-122567544D01*
X145100990Y-122567544D02*
X145148609Y-122662782D01*
X145148609Y-122662782D02*
X145148609Y-122996115D01*
X145672419Y-121472306D02*
X145672419Y-122043734D01*
X145672419Y-121758020D02*
X144672419Y-121758020D01*
X144672419Y-121758020D02*
X144815276Y-121853258D01*
X144815276Y-121853258D02*
X144910514Y-121948496D01*
X144910514Y-121948496D02*
X144958133Y-122043734D01*
M02*
