M48
; DRILL file {KiCad 7.0.9-7.0.9~ubuntu22.04.1} date Út 5. prosince 2023, 21:50:26
; FORMAT={-:-/ absolute / metric / decimal}
; #@! TF.CreationDate,2023-12-05T21:50:26+01:00
; #@! TF.GenerationSoftware,Kicad,Pcbnew,7.0.9-7.0.9~ubuntu22.04.1
; #@! TF.FileFunction,Plated,1,2,PTH
FMAT,2
METRIC
; #@! TA.AperFunction,Plated,PTH,ViaDrill
T1C0.300
; #@! TA.AperFunction,Plated,PTH,ComponentDrill
T2C0.762
; #@! TA.AperFunction,Plated,PTH,ComponentDrill
T3C0.800
; #@! TA.AperFunction,Plated,PTH,ComponentDrill
T4C1.000
; #@! TA.AperFunction,Plated,PTH,ComponentDrill
T5C1.750
; #@! TA.AperFunction,Plated,PTH,ComponentDrill
T6C2.500
%
G90
G05
T1
X67.25Y-91.0
X67.75Y-83.5
X71.75Y-94.75
X72.0Y-91.0
X74.5Y-106.5
X75.25Y-83.75
X75.25Y-86.75
X79.0Y-90.25
X79.25Y-84.5
X84.9Y-72.0
X86.0Y-77.5
X90.0Y-91.5
X101.75Y-114.75
X102.5Y-113.75
X110.0Y-82.75
X113.0Y-91.5
X113.5Y-101.75
X117.0Y-124.75
X117.25Y-109.5
X130.25Y-79.25
X135.5Y-92.25
X138.8Y-101.95
X139.0Y-100.4
X141.5Y-103.25
X142.95Y-109.95
X143.5Y-78.0
X143.75Y-89.25
X144.05Y-114.2
X144.75Y-103.0
X147.95Y-110.3
X148.35Y-93.1
X148.7Y-103.45
X149.55Y-108.35
X149.95Y-102.75
X149.95Y-112.05
X152.75Y-79.25
X153.75Y-80.5
X155.5Y-88.0
X156.75Y-87.5
X161.25Y-80.5
X163.5Y-78.75
X164.5Y-116.25
X167.25Y-78.75
X176.75Y-77.5
X176.75Y-89.0
X177.625Y-80.625
X177.75Y-88.75
X183.25Y-118.75
X183.5Y-116.5
X185.5Y-85.5
X193.0Y-96.75
X206.5Y-122.75
X207.75Y-110.0
X208.5Y-107.25
X209.5Y-108.0
X211.75Y-128.5
X212.0Y-102.25
X212.15Y-115.5
X212.25Y-122.5
X215.0Y-95.5
X221.25Y-96.25
X227.5Y-100.75
X230.5Y-114.75
X230.75Y-79.75
T2
X79.716Y-118.39
X79.716Y-120.93
X82.256Y-118.39
X82.256Y-120.93
X84.796Y-118.39
X84.796Y-120.93
X87.336Y-118.39
X87.336Y-120.93
X89.876Y-118.39
X89.876Y-120.93
X92.416Y-118.39
X92.416Y-120.93
X94.956Y-118.39
X94.956Y-120.93
X97.496Y-118.39
X97.496Y-120.93
X100.036Y-118.39
X100.036Y-120.93
X102.576Y-118.39
X102.576Y-120.93
X105.116Y-118.39
X105.116Y-120.93
X107.656Y-118.39
X107.656Y-120.93
X110.196Y-118.39
X110.196Y-120.93
X112.736Y-118.39
X112.736Y-120.93
X115.276Y-118.39
X115.276Y-120.93
X117.816Y-118.39
X117.816Y-120.93
X120.356Y-118.39
X120.356Y-120.93
X122.896Y-118.39
X122.896Y-120.93
X125.436Y-118.39
X125.436Y-120.93
X127.976Y-118.39
X127.976Y-120.93
T3
X152.0Y-89.98
X152.0Y-92.52
X152.0Y-95.06
X152.0Y-97.6
X152.0Y-100.14
X152.0Y-102.68
X152.0Y-105.22
X152.0Y-107.76
X152.0Y-110.3
X152.0Y-112.84
X152.0Y-115.38
X152.0Y-117.92
X152.0Y-120.46
X152.0Y-123.0
X159.62Y-89.98
X159.62Y-92.52
X159.62Y-95.06
X159.62Y-97.6
X159.62Y-100.14
X159.62Y-102.68
X159.62Y-105.22
X159.62Y-107.76
X159.62Y-110.3
X159.62Y-112.84
X159.62Y-115.38
X159.62Y-117.92
X159.62Y-120.46
X159.62Y-123.0
X190.6Y-113.0
X190.6Y-120.62
X191.98Y-78.5
X191.98Y-86.12
X193.14Y-113.0
X193.14Y-120.62
X194.52Y-78.5
X194.52Y-86.12
X195.68Y-113.0
X195.68Y-120.62
X197.06Y-78.5
X197.06Y-86.12
X198.22Y-113.0
X198.22Y-120.62
X199.6Y-78.5
X199.6Y-86.12
X200.76Y-113.0
X200.76Y-120.62
X202.14Y-78.5
X202.14Y-86.12
X203.3Y-113.0
X203.3Y-120.62
X204.68Y-78.5
X204.68Y-86.12
X205.84Y-113.0
X205.84Y-120.62
X207.22Y-78.5
X207.22Y-86.12
X208.38Y-113.0
X208.38Y-120.62
X209.76Y-78.5
X209.76Y-86.12
X210.92Y-113.0
X210.92Y-120.62
X212.3Y-78.5
X212.3Y-86.12
X213.46Y-113.0
X213.46Y-120.62
X214.84Y-78.5
X214.84Y-86.12
X216.0Y-113.0
X216.0Y-120.62
X217.38Y-78.5
X217.38Y-86.12
X218.54Y-113.0
X218.54Y-120.62
X219.92Y-78.5
X219.92Y-86.12
X221.08Y-113.0
X221.08Y-120.62
X222.46Y-78.5
X222.46Y-86.12
X223.62Y-113.0
X223.62Y-120.62
X225.0Y-78.5
X225.0Y-86.12
X232.0Y-95.92
X232.0Y-98.46
X232.0Y-101.0
X232.0Y-103.54
T4
X68.175Y-98.895
X68.175Y-101.435
X68.175Y-103.975
X68.175Y-106.515
X68.175Y-109.055
X68.175Y-111.595
X68.175Y-114.135
X68.175Y-116.675
X70.675Y-71.9
X70.675Y-74.44
X73.215Y-71.9
X73.215Y-74.44
X75.755Y-71.9
X75.755Y-74.44
X78.295Y-71.9
X78.295Y-74.44
X92.92Y-128.0
X93.75Y-81.6
X95.14Y-78.24
X95.14Y-84.96
X95.46Y-128.0
X98.0Y-128.0
X100.54Y-128.0
X101.86Y-78.24
X101.86Y-84.96
X103.08Y-128.0
X103.25Y-81.6
X105.62Y-128.0
X108.16Y-128.0
X119.5Y-81.8
X120.89Y-78.44
X120.89Y-85.16
X127.61Y-78.44
X127.61Y-85.16
X129.0Y-81.8
X137.45Y-125.975
X139.99Y-125.975
X142.53Y-125.975
X145.07Y-125.975
X188.72Y-73.0
X191.26Y-73.0
X192.84Y-104.0
X193.8Y-73.0
X195.38Y-104.0
X196.34Y-73.0
X197.92Y-104.0
X198.88Y-73.0
X200.46Y-104.0
X201.42Y-73.0
X203.0Y-104.0
X203.96Y-73.0
X205.54Y-104.0
X206.5Y-73.0
X208.08Y-104.0
X220.68Y-72.525
X223.22Y-72.525
X225.76Y-72.525
X228.3Y-72.525
T5
X166.92Y-73.5
X172.0Y-73.5
T6
X75.6Y-97.0
X75.6Y-120.0
X133.6Y-97.0
X133.6Y-120.0
T0
M30
