%TF.GenerationSoftware,KiCad,Pcbnew,7.0.9-7.0.9~ubuntu22.04.1*%
%TF.CreationDate,2023-12-05T21:50:27+01:00*%
%TF.ProjectId,Chytry_sklep,43687974-7279-45f7-936b-6c65702e6b69,rev?*%
%TF.SameCoordinates,Original*%
%TF.FileFunction,Drillmap*%
%TF.FilePolarity,Positive*%
%FSLAX45Y45*%
G04 Gerber Fmt 4.5, Leading zero omitted, Abs format (unit mm)*
G04 Created by KiCad (PCBNEW 7.0.9-7.0.9~ubuntu22.04.1) date 2023-12-05 21:50:27*
%MOMM*%
%LPD*%
G01*
G04 APERTURE LIST*
%ADD10C,0.050000*%
%ADD11C,0.200000*%
G04 APERTURE END LIST*
D10*
X23500000Y-13100000D02*
X6700000Y-13100000D01*
X6500000Y-12900000D02*
X6500000Y-7200000D01*
X6800000Y-6900000D02*
G75*
G03*
X6500000Y-7200000I0J-300000D01*
G01*
X8750000Y-10000000D02*
G75*
G03*
X8750000Y-10000000I-150000J0D01*
G01*
X21750000Y-10000000D02*
G75*
G03*
X21750000Y-10000000I-150000J0D01*
G01*
X23700000Y-7100000D02*
G75*
G03*
X23500000Y-6900000I-200000J0D01*
G01*
X23700000Y-12900000D02*
X23700000Y-7100000D01*
X6800000Y-6900000D02*
X23500000Y-6900000D01*
X6500000Y-12900000D02*
G75*
G03*
X6700000Y-13100000I200000J0D01*
G01*
X23500000Y-13100000D02*
G75*
G03*
X23700000Y-12900000I0J200000D01*
G01*
D11*
X6758277Y-13413984D02*
X6758277Y-13213984D01*
X6758277Y-13213984D02*
X6805896Y-13213984D01*
X6805896Y-13213984D02*
X6834467Y-13223508D01*
X6834467Y-13223508D02*
X6853515Y-13242555D01*
X6853515Y-13242555D02*
X6863039Y-13261603D01*
X6863039Y-13261603D02*
X6872562Y-13299698D01*
X6872562Y-13299698D02*
X6872562Y-13328269D01*
X6872562Y-13328269D02*
X6863039Y-13366365D01*
X6863039Y-13366365D02*
X6853515Y-13385412D01*
X6853515Y-13385412D02*
X6834467Y-13404460D01*
X6834467Y-13404460D02*
X6805896Y-13413984D01*
X6805896Y-13413984D02*
X6758277Y-13413984D01*
X6958277Y-13413984D02*
X6958277Y-13280650D01*
X6958277Y-13318746D02*
X6967801Y-13299698D01*
X6967801Y-13299698D02*
X6977324Y-13290174D01*
X6977324Y-13290174D02*
X6996372Y-13280650D01*
X6996372Y-13280650D02*
X7015420Y-13280650D01*
X7082086Y-13413984D02*
X7082086Y-13280650D01*
X7082086Y-13213984D02*
X7072562Y-13223508D01*
X7072562Y-13223508D02*
X7082086Y-13233031D01*
X7082086Y-13233031D02*
X7091610Y-13223508D01*
X7091610Y-13223508D02*
X7082086Y-13213984D01*
X7082086Y-13213984D02*
X7082086Y-13233031D01*
X7205896Y-13413984D02*
X7186848Y-13404460D01*
X7186848Y-13404460D02*
X7177324Y-13385412D01*
X7177324Y-13385412D02*
X7177324Y-13213984D01*
X7310658Y-13413984D02*
X7291610Y-13404460D01*
X7291610Y-13404460D02*
X7282086Y-13385412D01*
X7282086Y-13385412D02*
X7282086Y-13213984D01*
X7539229Y-13413984D02*
X7539229Y-13213984D01*
X7539229Y-13213984D02*
X7605896Y-13356841D01*
X7605896Y-13356841D02*
X7672562Y-13213984D01*
X7672562Y-13213984D02*
X7672562Y-13413984D01*
X7853515Y-13413984D02*
X7853515Y-13309222D01*
X7853515Y-13309222D02*
X7843991Y-13290174D01*
X7843991Y-13290174D02*
X7824943Y-13280650D01*
X7824943Y-13280650D02*
X7786848Y-13280650D01*
X7786848Y-13280650D02*
X7767801Y-13290174D01*
X7853515Y-13404460D02*
X7834467Y-13413984D01*
X7834467Y-13413984D02*
X7786848Y-13413984D01*
X7786848Y-13413984D02*
X7767801Y-13404460D01*
X7767801Y-13404460D02*
X7758277Y-13385412D01*
X7758277Y-13385412D02*
X7758277Y-13366365D01*
X7758277Y-13366365D02*
X7767801Y-13347317D01*
X7767801Y-13347317D02*
X7786848Y-13337793D01*
X7786848Y-13337793D02*
X7834467Y-13337793D01*
X7834467Y-13337793D02*
X7853515Y-13328269D01*
X7948753Y-13280650D02*
X7948753Y-13480650D01*
X7948753Y-13290174D02*
X7967801Y-13280650D01*
X7967801Y-13280650D02*
X8005896Y-13280650D01*
X8005896Y-13280650D02*
X8024943Y-13290174D01*
X8024943Y-13290174D02*
X8034467Y-13299698D01*
X8034467Y-13299698D02*
X8043991Y-13318746D01*
X8043991Y-13318746D02*
X8043991Y-13375888D01*
X8043991Y-13375888D02*
X8034467Y-13394936D01*
X8034467Y-13394936D02*
X8024943Y-13404460D01*
X8024943Y-13404460D02*
X8005896Y-13413984D01*
X8005896Y-13413984D02*
X7967801Y-13413984D01*
X7967801Y-13413984D02*
X7948753Y-13404460D01*
X8129705Y-13394936D02*
X8139229Y-13404460D01*
X8139229Y-13404460D02*
X8129705Y-13413984D01*
X8129705Y-13413984D02*
X8120182Y-13404460D01*
X8120182Y-13404460D02*
X8129705Y-13394936D01*
X8129705Y-13394936D02*
X8129705Y-13413984D01*
X8129705Y-13290174D02*
X8139229Y-13299698D01*
X8139229Y-13299698D02*
X8129705Y-13309222D01*
X8129705Y-13309222D02*
X8120182Y-13299698D01*
X8120182Y-13299698D02*
X8129705Y-13290174D01*
X8129705Y-13290174D02*
X8129705Y-13309222D01*
M02*
