%TF.GenerationSoftware,KiCad,Pcbnew,7.0.9-7.0.9~ubuntu22.04.1*%
%TF.CreationDate,2023-12-05T21:50:24+01:00*%
%TF.ProjectId,Chytry_sklep,43687974-7279-45f7-936b-6c65702e6b69,rev?*%
%TF.SameCoordinates,Original*%
%TF.FileFunction,Soldermask,Top*%
%TF.FilePolarity,Negative*%
%FSLAX46Y46*%
G04 Gerber Fmt 4.6, Leading zero omitted, Abs format (unit mm)*
G04 Created by KiCad (PCBNEW 7.0.9-7.0.9~ubuntu22.04.1) date 2023-12-05 21:50:24*
%MOMM*%
%LPD*%
G01*
G04 APERTURE LIST*
G04 Aperture macros list*
%AMRoundRect*
0 Rectangle with rounded corners*
0 $1 Rounding radius*
0 $2 $3 $4 $5 $6 $7 $8 $9 X,Y pos of 4 corners*
0 Add a 4 corners polygon primitive as box body*
4,1,4,$2,$3,$4,$5,$6,$7,$8,$9,$2,$3,0*
0 Add four circle primitives for the rounded corners*
1,1,$1+$1,$2,$3*
1,1,$1+$1,$4,$5*
1,1,$1+$1,$6,$7*
1,1,$1+$1,$8,$9*
0 Add four rect primitives between the rounded corners*
20,1,$1+$1,$2,$3,$4,$5,0*
20,1,$1+$1,$4,$5,$6,$7,0*
20,1,$1+$1,$6,$7,$8,$9,0*
20,1,$1+$1,$8,$9,$2,$3,0*%
G04 Aperture macros list end*
%ADD10R,1.600000X1.600000*%
%ADD11O,1.600000X1.600000*%
%ADD12RoundRect,0.102000X-1.100000X0.300000X-1.100000X-0.300000X1.100000X-0.300000X1.100000X0.300000X0*%
%ADD13RoundRect,0.243750X0.456250X-0.243750X0.456250X0.243750X-0.456250X0.243750X-0.456250X-0.243750X0*%
%ADD14RoundRect,0.250000X0.450000X-0.262500X0.450000X0.262500X-0.450000X0.262500X-0.450000X-0.262500X0*%
%ADD15R,1.400000X1.200000*%
%ADD16R,1.700000X1.700000*%
%ADD17O,1.700000X1.700000*%
%ADD18RoundRect,0.250000X-0.400000X0.400000X-0.400000X-0.400000X0.400000X-0.400000X0.400000X0.400000X0*%
%ADD19RoundRect,0.250000X-0.400000X0.750000X-0.400000X-0.750000X0.400000X-0.750000X0.400000X0.750000X0*%
%ADD20RoundRect,0.250000X0.475000X-0.250000X0.475000X0.250000X-0.475000X0.250000X-0.475000X-0.250000X0*%
%ADD21RoundRect,0.250000X-0.250000X-0.475000X0.250000X-0.475000X0.250000X0.475000X-0.250000X0.475000X0*%
%ADD22C,5.000000*%
%ADD23C,1.524000*%
%ADD24C,1.700000*%
%ADD25RoundRect,0.250000X-0.475000X0.250000X-0.475000X-0.250000X0.475000X-0.250000X0.475000X0.250000X0*%
%ADD26RoundRect,0.250000X-0.450000X0.262500X-0.450000X-0.262500X0.450000X-0.262500X0.450000X0.262500X0*%
%ADD27RoundRect,0.250000X0.262500X0.450000X-0.262500X0.450000X-0.262500X-0.450000X0.262500X-0.450000X0*%
%ADD28RoundRect,0.212500X-0.212500X0.737500X-0.212500X-0.737500X0.212500X-0.737500X0.212500X0.737500X0*%
%ADD29RoundRect,0.212500X-0.737500X0.212500X-0.737500X-0.212500X0.737500X-0.212500X0.737500X0.212500X0*%
%ADD30R,4.800000X4.800000*%
%ADD31RoundRect,0.250000X-0.262500X-0.450000X0.262500X-0.450000X0.262500X0.450000X-0.262500X0.450000X0*%
%ADD32R,1.500000X1.500000*%
%ADD33C,1.500000*%
%ADD34R,2.000000X2.000000*%
%ADD35C,2.000000*%
%ADD36RoundRect,0.243750X-0.243750X-0.456250X0.243750X-0.456250X0.243750X0.456250X-0.243750X0.456250X0*%
%ADD37R,2.800000X2.800000*%
%ADD38C,2.800000*%
%ADD39RoundRect,0.109000X0.183000X0.168000X-0.183000X0.168000X-0.183000X-0.168000X0.183000X-0.168000X0*%
%ADD40R,1.200000X1.400000*%
G04 APERTURE END LIST*
D10*
%TO.C,U1*%
X190600000Y-120620000D03*
D11*
X193140000Y-120620000D03*
X195680000Y-120620000D03*
X198220000Y-120620000D03*
X200760000Y-120620000D03*
X203300000Y-120620000D03*
X205840000Y-120620000D03*
X208380000Y-120620000D03*
X210920000Y-120620000D03*
X213460000Y-120620000D03*
X216000000Y-120620000D03*
X218540000Y-120620000D03*
X221080000Y-120620000D03*
X223620000Y-120620000D03*
X223620000Y-113000000D03*
X221080000Y-113000000D03*
X218540000Y-113000000D03*
X216000000Y-113000000D03*
X213460000Y-113000000D03*
X210920000Y-113000000D03*
X208380000Y-113000000D03*
X205840000Y-113000000D03*
X203300000Y-113000000D03*
X200760000Y-113000000D03*
X198220000Y-113000000D03*
X195680000Y-113000000D03*
X193140000Y-113000000D03*
X190600000Y-113000000D03*
%TD*%
D12*
%TO.C,LM393DT1*%
X77300000Y-82595000D03*
X77300000Y-83865000D03*
X77300000Y-85135000D03*
X77300000Y-86405000D03*
X82500000Y-86405000D03*
X82500000Y-85135000D03*
X82500000Y-83865000D03*
X82500000Y-82595000D03*
%TD*%
D13*
%TO.C,MData1*%
X198000000Y-125000000D03*
X198000000Y-123125000D03*
%TD*%
D14*
%TO.C,R10*%
X192500000Y-108912500D03*
X192500000Y-107087500D03*
%TD*%
D15*
%TO.C,X1*%
X215550000Y-124150000D03*
X213350000Y-124150000D03*
X213350000Y-125850000D03*
X215550000Y-125850000D03*
%TD*%
D16*
%TO.C,Num1*%
X188720000Y-73000000D03*
D17*
X191260000Y-73000000D03*
X193800000Y-73000000D03*
X196340000Y-73000000D03*
X198880000Y-73000000D03*
X201420000Y-73000000D03*
X203960000Y-73000000D03*
X206500000Y-73000000D03*
%TD*%
D16*
%TO.C,LED1*%
X192840000Y-104000000D03*
D17*
X195380000Y-104000000D03*
X197920000Y-104000000D03*
X200460000Y-104000000D03*
X203000000Y-104000000D03*
X205540000Y-104000000D03*
X208080000Y-104000000D03*
%TD*%
D18*
%TO.C,P_MQ7*%
X73250000Y-79450000D03*
D19*
X67750000Y-80600000D03*
D18*
X73250000Y-81750000D03*
%TD*%
D20*
%TO.C,C6*%
X210000000Y-73950000D03*
X210000000Y-72050000D03*
%TD*%
D14*
%TO.C,DR1*%
X226000000Y-97912500D03*
X226000000Y-96087500D03*
%TD*%
D21*
%TO.C,MC3*%
X78550000Y-92000000D03*
X80450000Y-92000000D03*
%TD*%
D14*
%TO.C,R2*%
X200000000Y-108912500D03*
X200000000Y-107087500D03*
%TD*%
D22*
%TO.C,Zero1*%
X133600000Y-120000000D03*
X133600000Y-97000000D03*
X75600000Y-120000000D03*
X75600000Y-97000000D03*
D23*
X127976000Y-118390000D03*
X127976000Y-120930000D03*
X125436000Y-118390000D03*
X125436000Y-120930000D03*
X122896000Y-118390000D03*
X122896000Y-120930000D03*
X120356000Y-118390000D03*
X120356000Y-120930000D03*
X117816000Y-118390000D03*
X117816000Y-120930000D03*
X115276000Y-118390000D03*
X115276000Y-120930000D03*
X112736000Y-118390000D03*
X112736000Y-120930000D03*
X110196000Y-118390000D03*
X110196000Y-120930000D03*
X107656000Y-118390000D03*
X107656000Y-120930000D03*
X105116000Y-118390000D03*
X105116000Y-120930000D03*
X102576000Y-118390000D03*
X102576000Y-120930000D03*
X100036000Y-118390000D03*
X100036000Y-120930000D03*
X97496000Y-118390000D03*
X97496000Y-120930000D03*
X94956000Y-118390000D03*
X94956000Y-120930000D03*
X92416000Y-118390000D03*
X92416000Y-120930000D03*
X89876000Y-118390000D03*
X89876000Y-120930000D03*
X87336000Y-118390000D03*
X87336000Y-120930000D03*
X84796000Y-118390000D03*
X84796000Y-120930000D03*
X82256000Y-118390000D03*
X82256000Y-120930000D03*
X79716000Y-118390000D03*
X79716000Y-120930000D03*
%TD*%
D16*
%TO.C,NRF1*%
X70675000Y-74440000D03*
D24*
X70675000Y-71900000D03*
X73215000Y-74440000D03*
X73215000Y-71900000D03*
X75755000Y-74440000D03*
X75755000Y-71900000D03*
X78295000Y-74440000D03*
X78295000Y-71900000D03*
%TD*%
D25*
%TO.C,BC1*%
X151250000Y-81800000D03*
X151250000Y-83700000D03*
%TD*%
D26*
%TO.C,MR4*%
X82500000Y-88587500D03*
X82500000Y-90412500D03*
%TD*%
D27*
%TO.C,R7*%
X142912500Y-122000000D03*
X141087500Y-122000000D03*
%TD*%
D28*
%TO.C,SCD40*%
X172800000Y-85900000D03*
X171550000Y-85900000D03*
X170300000Y-85900000D03*
X169050000Y-85900000D03*
X167800000Y-85900000D03*
D29*
X166150000Y-87550000D03*
X166150000Y-88800000D03*
X166150000Y-90050000D03*
X166150000Y-91300000D03*
X166150000Y-92550000D03*
D28*
X167800000Y-94200000D03*
X169050000Y-94200000D03*
X170300000Y-94200000D03*
X171550000Y-94200000D03*
X172800000Y-94200000D03*
D29*
X174450000Y-92550000D03*
X174450000Y-91300000D03*
X174450000Y-90050000D03*
X174450000Y-88800000D03*
X174450000Y-87550000D03*
D30*
X170300000Y-90050000D03*
%TD*%
D21*
%TO.C,C5*%
X216550000Y-76000000D03*
X218450000Y-76000000D03*
%TD*%
%TO.C,C2*%
X219050000Y-125000000D03*
X220950000Y-125000000D03*
%TD*%
D18*
%TO.C,P_MQ4*%
X73250000Y-85100000D03*
D19*
X67750000Y-86250000D03*
D18*
X73250000Y-87400000D03*
%TD*%
D31*
%TO.C,RR3*%
X227587500Y-77500000D03*
X229412500Y-77500000D03*
%TD*%
D10*
%TO.C,U3*%
X225000000Y-78500000D03*
D11*
X222460000Y-78500000D03*
X219920000Y-78500000D03*
X217380000Y-78500000D03*
X214840000Y-78500000D03*
X212300000Y-78500000D03*
X209760000Y-78500000D03*
X207220000Y-78500000D03*
X204680000Y-78500000D03*
X202140000Y-78500000D03*
X199600000Y-78500000D03*
X197060000Y-78500000D03*
X194520000Y-78500000D03*
X191980000Y-78500000D03*
X191980000Y-86120000D03*
X194520000Y-86120000D03*
X197060000Y-86120000D03*
X199600000Y-86120000D03*
X202140000Y-86120000D03*
X204680000Y-86120000D03*
X207220000Y-86120000D03*
X209760000Y-86120000D03*
X212300000Y-86120000D03*
X214840000Y-86120000D03*
X217380000Y-86120000D03*
X219920000Y-86120000D03*
X222460000Y-86120000D03*
X225000000Y-86120000D03*
%TD*%
D16*
%TO.C,V1*%
X137450000Y-125975000D03*
D17*
X139990000Y-125975000D03*
X142530000Y-125975000D03*
X145070000Y-125975000D03*
%TD*%
D26*
%TO.C,MR1*%
X74750000Y-89587500D03*
X74750000Y-91412500D03*
%TD*%
D13*
%TO.C,IData1*%
X212500000Y-90437500D03*
X212500000Y-88562500D03*
%TD*%
D32*
%TO.C,DHT22*%
X232000000Y-95920000D03*
D33*
X232000000Y-98460000D03*
X232000000Y-101000000D03*
X232000000Y-103540000D03*
%TD*%
D25*
%TO.C,C4*%
X148000000Y-116550000D03*
X148000000Y-118450000D03*
%TD*%
D27*
%TO.C,RR1*%
X186412500Y-120500000D03*
X184587500Y-120500000D03*
%TD*%
D14*
%TO.C,R3*%
X202500000Y-108912500D03*
X202500000Y-107087500D03*
%TD*%
D31*
%TO.C,R1*%
X203587500Y-128000000D03*
X205412500Y-128000000D03*
%TD*%
D25*
%TO.C,BC2*%
X158250000Y-83800000D03*
X158250000Y-85700000D03*
%TD*%
D13*
%TO.C,ISafe1*%
X220000000Y-90437500D03*
X220000000Y-88562500D03*
%TD*%
D16*
%TO.C,Rasp_pins1*%
X92920000Y-128000000D03*
D17*
X95460000Y-128000000D03*
X98000000Y-128000000D03*
X100540000Y-128000000D03*
X103080000Y-128000000D03*
X105620000Y-128000000D03*
X108160000Y-128000000D03*
%TD*%
D16*
%TO.C,LCD1*%
X228300000Y-72525000D03*
D17*
X225760000Y-72525000D03*
X223220000Y-72525000D03*
X220680000Y-72525000D03*
%TD*%
D26*
%TO.C,R11*%
X220000000Y-92587500D03*
X220000000Y-94412500D03*
%TD*%
D25*
%TO.C,MC2*%
X86000000Y-79050000D03*
X86000000Y-80950000D03*
%TD*%
D14*
%TO.C,BR2*%
X159500000Y-80912500D03*
X159500000Y-79087500D03*
%TD*%
D27*
%TO.C,MR2*%
X80412500Y-80500000D03*
X78587500Y-80500000D03*
%TD*%
D21*
%TO.C,MC1*%
X77050000Y-88500000D03*
X78950000Y-88500000D03*
%TD*%
D10*
%TO.C,U2*%
X152000000Y-89980000D03*
D11*
X152000000Y-92520000D03*
X152000000Y-95060000D03*
X152000000Y-97600000D03*
X152000000Y-100140000D03*
X152000000Y-102680000D03*
X152000000Y-105220000D03*
X152000000Y-107760000D03*
X152000000Y-110300000D03*
X152000000Y-112840000D03*
X152000000Y-115380000D03*
X152000000Y-117920000D03*
X152000000Y-120460000D03*
X152000000Y-123000000D03*
X159620000Y-123000000D03*
X159620000Y-120460000D03*
X159620000Y-117920000D03*
X159620000Y-115380000D03*
X159620000Y-112840000D03*
X159620000Y-110300000D03*
X159620000Y-107760000D03*
X159620000Y-105220000D03*
X159620000Y-102680000D03*
X159620000Y-100140000D03*
X159620000Y-97600000D03*
X159620000Y-95060000D03*
X159620000Y-92520000D03*
X159620000Y-89980000D03*
%TD*%
D26*
%TO.C,R12*%
X212500000Y-92675000D03*
X212500000Y-94500000D03*
%TD*%
D27*
%TO.C,RR2*%
X148412500Y-90000000D03*
X146587500Y-90000000D03*
%TD*%
D31*
%TO.C,R5*%
X198087500Y-128000000D03*
X199912500Y-128000000D03*
%TD*%
D34*
%TO.C,MQ_4*%
X95140000Y-78240000D03*
D35*
X93750000Y-81600000D03*
X95140000Y-84960000D03*
X101860000Y-84960000D03*
X103250000Y-81600000D03*
X101860000Y-78240000D03*
%TD*%
D27*
%TO.C,R6*%
X144912500Y-97500000D03*
X143087500Y-97500000D03*
%TD*%
D13*
%TO.C,MSafe1*%
X203500000Y-124937500D03*
X203500000Y-123062500D03*
%TD*%
D14*
%TO.C,R4*%
X205000000Y-108912500D03*
X205000000Y-107087500D03*
%TD*%
D36*
%TO.C,SSafe1*%
X147062500Y-97500000D03*
X148937500Y-97500000D03*
%TD*%
D37*
%TO.C,Power1*%
X166920000Y-73500000D03*
D38*
X172000000Y-73500000D03*
%TD*%
D39*
%TO.C,BMP388*%
X154750000Y-85000000D03*
X155250000Y-85000000D03*
X155765000Y-84735000D03*
X155765000Y-84235000D03*
X155765000Y-83735000D03*
X155250000Y-83470000D03*
X154750000Y-83470000D03*
X154235000Y-83735000D03*
X154235000Y-84235000D03*
X154235000Y-84735000D03*
%TD*%
D40*
%TO.C,X3*%
X212400000Y-72400000D03*
X212400000Y-74600000D03*
X214100000Y-74600000D03*
X214100000Y-72400000D03*
%TD*%
%TO.C,X2*%
X147850000Y-114300000D03*
X147850000Y-112100000D03*
X146150000Y-112100000D03*
X146150000Y-114300000D03*
%TD*%
D20*
%TO.C,C3*%
X146000000Y-108400000D03*
X146000000Y-106500000D03*
%TD*%
D14*
%TO.C,BR1*%
X149000000Y-87162500D03*
X149000000Y-85337500D03*
%TD*%
D16*
%TO.C,RFID1*%
X68175000Y-116675000D03*
D17*
X68175000Y-114135000D03*
X68175000Y-111595000D03*
X68175000Y-109055000D03*
X68175000Y-106515000D03*
X68175000Y-103975000D03*
X68175000Y-101435000D03*
X68175000Y-98895000D03*
%TD*%
D14*
%TO.C,MR3*%
X86000000Y-84912500D03*
X86000000Y-83087500D03*
%TD*%
D36*
%TO.C,SData1*%
X146062500Y-122000000D03*
X147937500Y-122000000D03*
%TD*%
D14*
%TO.C,R8*%
X197500000Y-108912500D03*
X197500000Y-107087500D03*
%TD*%
D34*
%TO.C,MQ_7*%
X120890000Y-78440000D03*
D35*
X119500000Y-81800000D03*
X120890000Y-85160000D03*
X127610000Y-85160000D03*
X129000000Y-81800000D03*
X127610000Y-78440000D03*
%TD*%
D21*
%TO.C,C1*%
X208050000Y-125000000D03*
X209950000Y-125000000D03*
%TD*%
D14*
%TO.C,R9*%
X195000000Y-108912500D03*
X195000000Y-107087500D03*
%TD*%
M02*
