%TF.GenerationSoftware,KiCad,Pcbnew,7.0.9-7.0.9~ubuntu22.04.1*%
%TF.CreationDate,2023-12-05T21:50:24+01:00*%
%TF.ProjectId,Chytry_sklep,43687974-7279-45f7-936b-6c65702e6b69,rev?*%
%TF.SameCoordinates,Original*%
%TF.FileFunction,Paste,Top*%
%TF.FilePolarity,Positive*%
%FSLAX46Y46*%
G04 Gerber Fmt 4.6, Leading zero omitted, Abs format (unit mm)*
G04 Created by KiCad (PCBNEW 7.0.9-7.0.9~ubuntu22.04.1) date 2023-12-05 21:50:24*
%MOMM*%
%LPD*%
G01*
G04 APERTURE LIST*
G04 Aperture macros list*
%AMRoundRect*
0 Rectangle with rounded corners*
0 $1 Rounding radius*
0 $2 $3 $4 $5 $6 $7 $8 $9 X,Y pos of 4 corners*
0 Add a 4 corners polygon primitive as box body*
4,1,4,$2,$3,$4,$5,$6,$7,$8,$9,$2,$3,0*
0 Add four circle primitives for the rounded corners*
1,1,$1+$1,$2,$3*
1,1,$1+$1,$4,$5*
1,1,$1+$1,$6,$7*
1,1,$1+$1,$8,$9*
0 Add four rect primitives between the rounded corners*
20,1,$1+$1,$2,$3,$4,$5,0*
20,1,$1+$1,$4,$5,$6,$7,0*
20,1,$1+$1,$6,$7,$8,$9,0*
20,1,$1+$1,$8,$9,$2,$3,0*%
G04 Aperture macros list end*
%ADD10R,2.200000X0.600000*%
%ADD11RoundRect,0.243750X0.456250X-0.243750X0.456250X0.243750X-0.456250X0.243750X-0.456250X-0.243750X0*%
%ADD12RoundRect,0.250000X0.450000X-0.262500X0.450000X0.262500X-0.450000X0.262500X-0.450000X-0.262500X0*%
%ADD13R,1.400000X1.200000*%
%ADD14RoundRect,0.250000X-0.400000X0.400000X-0.400000X-0.400000X0.400000X-0.400000X0.400000X0.400000X0*%
%ADD15RoundRect,0.250000X-0.400000X0.750000X-0.400000X-0.750000X0.400000X-0.750000X0.400000X0.750000X0*%
%ADD16RoundRect,0.250000X0.475000X-0.250000X0.475000X0.250000X-0.475000X0.250000X-0.475000X-0.250000X0*%
%ADD17RoundRect,0.250000X-0.250000X-0.475000X0.250000X-0.475000X0.250000X0.475000X-0.250000X0.475000X0*%
%ADD18RoundRect,0.250000X-0.475000X0.250000X-0.475000X-0.250000X0.475000X-0.250000X0.475000X0.250000X0*%
%ADD19RoundRect,0.250000X-0.450000X0.262500X-0.450000X-0.262500X0.450000X-0.262500X0.450000X0.262500X0*%
%ADD20RoundRect,0.250000X0.262500X0.450000X-0.262500X0.450000X-0.262500X-0.450000X0.262500X-0.450000X0*%
%ADD21RoundRect,0.250001X-0.714999X0.714999X-0.714999X-0.714999X0.714999X-0.714999X0.714999X0.714999X0*%
%ADD22RoundRect,0.212500X-0.212500X0.737500X-0.212500X-0.737500X0.212500X-0.737500X0.212500X0.737500X0*%
%ADD23RoundRect,0.212500X-0.737500X0.212500X-0.737500X-0.212500X0.737500X-0.212500X0.737500X0.212500X0*%
%ADD24RoundRect,0.250000X-0.262500X-0.450000X0.262500X-0.450000X0.262500X0.450000X-0.262500X0.450000X0*%
%ADD25RoundRect,0.243750X-0.243750X-0.456250X0.243750X-0.456250X0.243750X0.456250X-0.243750X0.456250X0*%
%ADD26RoundRect,0.007000X0.183000X0.168000X-0.183000X0.168000X-0.183000X-0.168000X0.183000X-0.168000X0*%
%ADD27R,1.200000X1.400000*%
G04 APERTURE END LIST*
D10*
%TO.C,LM393DT1*%
X77300000Y-82595000D03*
X77300000Y-83865000D03*
X77300000Y-85135000D03*
X77300000Y-86405000D03*
X82500000Y-86405000D03*
X82500000Y-85135000D03*
X82500000Y-83865000D03*
X82500000Y-82595000D03*
%TD*%
D11*
%TO.C,MData1*%
X198000000Y-125000000D03*
X198000000Y-123125000D03*
%TD*%
D12*
%TO.C,R10*%
X192500000Y-108912500D03*
X192500000Y-107087500D03*
%TD*%
D13*
%TO.C,X1*%
X215550000Y-124150000D03*
X213350000Y-124150000D03*
X213350000Y-125850000D03*
X215550000Y-125850000D03*
%TD*%
D14*
%TO.C,P_MQ7*%
X73250000Y-79450000D03*
D15*
X67750000Y-80600000D03*
D14*
X73250000Y-81750000D03*
%TD*%
D16*
%TO.C,C6*%
X210000000Y-73950000D03*
X210000000Y-72050000D03*
%TD*%
D12*
%TO.C,DR1*%
X226000000Y-97912500D03*
X226000000Y-96087500D03*
%TD*%
D17*
%TO.C,MC3*%
X78550000Y-92000000D03*
X80450000Y-92000000D03*
%TD*%
D12*
%TO.C,R2*%
X200000000Y-108912500D03*
X200000000Y-107087500D03*
%TD*%
D18*
%TO.C,BC1*%
X151250000Y-81800000D03*
X151250000Y-83700000D03*
%TD*%
D19*
%TO.C,MR4*%
X82500000Y-88587500D03*
X82500000Y-90412500D03*
%TD*%
D20*
%TO.C,R7*%
X142912500Y-122000000D03*
X141087500Y-122000000D03*
%TD*%
D21*
%TO.C,SCD40*%
X171500000Y-88850000D03*
X169100000Y-88850000D03*
X171500000Y-91250000D03*
X169100000Y-91250000D03*
D22*
X172800000Y-85900000D03*
X171550000Y-85900000D03*
X170300000Y-85900000D03*
X169050000Y-85900000D03*
X167800000Y-85900000D03*
D23*
X166150000Y-87550000D03*
X166150000Y-88800000D03*
X166150000Y-90050000D03*
X166150000Y-91300000D03*
X166150000Y-92550000D03*
D22*
X167800000Y-94200000D03*
X169050000Y-94200000D03*
X170300000Y-94200000D03*
X171550000Y-94200000D03*
X172800000Y-94200000D03*
D23*
X174450000Y-92550000D03*
X174450000Y-91300000D03*
X174450000Y-90050000D03*
X174450000Y-88800000D03*
X174450000Y-87550000D03*
%TD*%
D17*
%TO.C,C5*%
X216550000Y-76000000D03*
X218450000Y-76000000D03*
%TD*%
%TO.C,C2*%
X219050000Y-125000000D03*
X220950000Y-125000000D03*
%TD*%
D14*
%TO.C,P_MQ4*%
X73250000Y-85100000D03*
D15*
X67750000Y-86250000D03*
D14*
X73250000Y-87400000D03*
%TD*%
D24*
%TO.C,RR3*%
X227587500Y-77500000D03*
X229412500Y-77500000D03*
%TD*%
D19*
%TO.C,MR1*%
X74750000Y-89587500D03*
X74750000Y-91412500D03*
%TD*%
D11*
%TO.C,IData1*%
X212500000Y-90437500D03*
X212500000Y-88562500D03*
%TD*%
D18*
%TO.C,C4*%
X148000000Y-116550000D03*
X148000000Y-118450000D03*
%TD*%
D20*
%TO.C,RR1*%
X186412500Y-120500000D03*
X184587500Y-120500000D03*
%TD*%
D12*
%TO.C,R3*%
X202500000Y-108912500D03*
X202500000Y-107087500D03*
%TD*%
D24*
%TO.C,R1*%
X203587500Y-128000000D03*
X205412500Y-128000000D03*
%TD*%
D18*
%TO.C,BC2*%
X158250000Y-83800000D03*
X158250000Y-85700000D03*
%TD*%
D11*
%TO.C,ISafe1*%
X220000000Y-90437500D03*
X220000000Y-88562500D03*
%TD*%
D19*
%TO.C,R11*%
X220000000Y-92587500D03*
X220000000Y-94412500D03*
%TD*%
D18*
%TO.C,MC2*%
X86000000Y-79050000D03*
X86000000Y-80950000D03*
%TD*%
D12*
%TO.C,BR2*%
X159500000Y-80912500D03*
X159500000Y-79087500D03*
%TD*%
D20*
%TO.C,MR2*%
X80412500Y-80500000D03*
X78587500Y-80500000D03*
%TD*%
D17*
%TO.C,MC1*%
X77050000Y-88500000D03*
X78950000Y-88500000D03*
%TD*%
D19*
%TO.C,R12*%
X212500000Y-92675000D03*
X212500000Y-94500000D03*
%TD*%
D20*
%TO.C,RR2*%
X148412500Y-90000000D03*
X146587500Y-90000000D03*
%TD*%
D24*
%TO.C,R5*%
X198087500Y-128000000D03*
X199912500Y-128000000D03*
%TD*%
D20*
%TO.C,R6*%
X144912500Y-97500000D03*
X143087500Y-97500000D03*
%TD*%
D11*
%TO.C,MSafe1*%
X203500000Y-124937500D03*
X203500000Y-123062500D03*
%TD*%
D12*
%TO.C,R4*%
X205000000Y-108912500D03*
X205000000Y-107087500D03*
%TD*%
D25*
%TO.C,SSafe1*%
X147062500Y-97500000D03*
X148937500Y-97500000D03*
%TD*%
D26*
%TO.C,BMP388*%
X154750000Y-85000000D03*
X155250000Y-85000000D03*
X155765000Y-84735000D03*
X155765000Y-84235000D03*
X155765000Y-83735000D03*
X155250000Y-83470000D03*
X154750000Y-83470000D03*
X154235000Y-83735000D03*
X154235000Y-84235000D03*
X154235000Y-84735000D03*
%TD*%
D27*
%TO.C,X3*%
X212400000Y-72400000D03*
X212400000Y-74600000D03*
X214100000Y-74600000D03*
X214100000Y-72400000D03*
%TD*%
%TO.C,X2*%
X147850000Y-114300000D03*
X147850000Y-112100000D03*
X146150000Y-112100000D03*
X146150000Y-114300000D03*
%TD*%
D16*
%TO.C,C3*%
X146000000Y-108400000D03*
X146000000Y-106500000D03*
%TD*%
D12*
%TO.C,BR1*%
X149000000Y-87162500D03*
X149000000Y-85337500D03*
%TD*%
%TO.C,MR3*%
X86000000Y-84912500D03*
X86000000Y-83087500D03*
%TD*%
D25*
%TO.C,SData1*%
X146062500Y-122000000D03*
X147937500Y-122000000D03*
%TD*%
D12*
%TO.C,R8*%
X197500000Y-108912500D03*
X197500000Y-107087500D03*
%TD*%
D17*
%TO.C,C1*%
X208050000Y-125000000D03*
X209950000Y-125000000D03*
%TD*%
D12*
%TO.C,R9*%
X195000000Y-108912500D03*
X195000000Y-107087500D03*
%TD*%
M02*
